<svg xmlns="http://www.w3.org/2000/svg" viewBox="0 0 941.91 648.35"><defs><style>.cls-1{fill:#fff;}.cls-2{fill:#00aeef;}.cls-3{fill:#007db8;}.cls-4{fill:#005b94;}</style></defs><g id="Layer_2" data-name="Layer 2"><g id="Layer_1-2" data-name="Layer 1"><path class="cls-1" d="M30,14.37H15.61V35.92H30c7,0,11.41-4.31,11.41-10.72S37,14.37,30,14.37m.78,35.37H15.61V79.37H.22V.66H30.78c16.28,0,26,11.16,26,24.54s-9.74,24.54-26,24.54"/><path class="cls-1" d="M90.9,23.88l9.63,28.63H80.93ZM84.48.66,55.8,79.37h16l4.77-13.93h28l4.65,13.93h16.06L96.55.66Z"/><polygon class="cls-1" points="135.09 0.66 135.09 79.37 187.02 79.37 187.02 65.66 150.48 65.66 150.48 46.53 181.59 46.53 181.59 32.83 150.48 32.83 150.48 14.37 187.02 14.37 187.02 0.66 135.09 0.66"/><path class="cls-1" d="M223.79,80c-12,0-21-2.54-28.79-10.39l10-10c5,5,11.74,6.63,19,6.63,9.08,0,14-3.42,14-9.72A8.77,8.77,0,0,0,235.53,50c-1.55-1.43-3.32-2.21-7-2.76L219,45.88c-6.75-1-11.73-3.1-15.28-6.53-3.76-3.75-5.65-8.84-5.65-15.47,0-14,10.42-23.88,27.47-23.88C236.42,0,244.27,2.65,251,9.18l-9.75,9.61c-5-4.75-11-5.42-16.16-5.42-8.2,0-12.18,4.54-12.18,10A7.59,7.59,0,0,0,215.26,29a13.54,13.54,0,0,0,7.31,3.1l9.3,1.32c7.2,1,11.74,3,15.06,6.08,4.21,4,6.09,9.73,6.09,16.7C253,71.41,240.29,80,223.79,80"/><path class="cls-1" d="M289.23,80c-12,0-21-2.54-28.79-10.39l10-10c5,5,11.74,6.63,19,6.63,9.07,0,14-3.42,14-9.72A8.73,8.73,0,0,0,301,50c-1.55-1.43-3.32-2.21-7-2.76l-9.53-1.32c-6.75-1-11.74-3.1-15.28-6.53-3.77-3.75-5.65-8.84-5.65-15.47C263.54,9.84,274,0,291,0c10.85,0,18.71,2.65,25.46,9.18l-9.74,9.61c-5-4.75-11-5.42-16.17-5.42-8.19,0-12.18,4.54-12.18,10A7.56,7.56,0,0,0,280.71,29a13.47,13.47,0,0,0,7.31,3.1l9.3,1.32c7.2,1,11.73,3,15.05,6.08,4.21,4,6.09,9.73,6.09,16.7,0,15.25-12.73,23.87-29.23,23.87"/><polygon class="cls-1" points="332.98 0.66 332.98 79.37 384.14 79.37 384.14 65.66 348.37 65.66 348.37 0.66 332.98 0.66"/><polygon class="cls-1" points="396.65 0.66 396.65 79.37 448.58 79.37 448.58 65.66 412.05 65.66 412.05 46.53 443.16 46.53 443.16 32.83 412.05 32.83 412.05 14.37 448.58 14.37 448.58 0.66 396.65 0.66"/><path class="cls-1" d="M493.54,14.37H479V35.15h14.5c6.76,0,11.19-4.31,11.19-10.39s-4.43-10.39-11.19-10.39m12,65L490.11,48H479V79.37h-15.4V.66h30.9c16,0,25.58,11,25.58,24.1a21.19,21.19,0,0,1-14.4,20.67l17.61,33.94Z"/><path class="cls-1" d="M904.28,537.73c0,12.17-9,20.8-22.62,20.8H852.31V516.94h29.35c13.66,0,22.62,8.63,22.62,20.79M941.91,647,906.3,579.1c15.45-5.53,29.12-19.24,29.12-41.37,0-26.32-19.26-48.23-51.75-48.23H821.18V647h31.13V584.19h22.41L905.85,647ZM758.23,568.26c0,30.31-1.79,37.61-7.83,44.25-4.49,5.09-11.43,8.41-19.94,8.41s-15.68-3.32-20.16-8.41c-6-6.64-7.62-13.94-7.62-44.25s1.57-37.6,7.62-44.24c4.48-5.09,11.65-8.41,20.16-8.41s15.45,3.32,19.94,8.41c6,6.64,7.83,13.94,7.83,44.24m31.14,0c0-27.21.22-46.9-15.9-62.83-11.2-11.06-24.87-17.25-43-17.25s-32,6.19-43.23,17.25c-16.13,15.93-15.68,35.62-15.68,62.83s-.45,46.91,15.68,62.83c11.2,11.06,25.08,17.26,43.23,17.26s31.81-6.2,43-17.26c16.12-15.92,15.9-35.61,15.9-62.83M656.09,516.94V489.5H541.63v27.44h41.66V647h31.14V516.94ZM516.32,489.5H485.18V647h31.14ZM448,647V489.5H416.86V586L353.69,489.5H325.92V647h31.13V550.35L420.22,647ZM263,568.26c0,30.31-1.78,37.61-7.83,44.25-4.49,5.09-11.43,8.41-19.94,8.41s-15.68-3.32-20.16-8.41c-6-6.64-7.62-13.94-7.62-44.25S209,530.66,215,524c4.48-5.09,11.65-8.41,20.16-8.41s15.45,3.32,19.94,8.41c6.05,6.64,7.83,13.94,7.83,44.24m31.14,0c0-27.21.22-46.9-15.9-62.83-11.2-11.06-24.87-17.25-43-17.25s-32,6.19-43.23,17.25c-16.13,15.93-15.68,35.62-15.68,62.83s-.45,46.91,15.68,62.83c11.2,11.06,25.09,17.26,43.23,17.26s31.81-6.2,43-17.26c16.12-15.92,15.9-35.61,15.9-62.83M144.48,647V489.5H113.8L72.35,574.68,30.69,489.5H0V647H31.14V555.21l30.69,59.73h21l30.46-59.73V647Z"/><path class="cls-1" d="M523.26,203.58V181H463.9v25.66h28.22v5.53c0,7.74-1.79,15.93-6.94,21.46s-11.88,8.85-21.28,8.85c-8.51,0-15.46-3.1-19.94-8.19-6-6.64-7.61-14.16-7.61-44.47s1.56-37.61,7.61-44.24c4.48-5.09,11.43-8.41,19.94-8.41,12.32,0,18.82,4.65,27.77,13.5l21.06-20.8c-14.33-14.16-26.65-20.13-48.83-20.13-17.92,0-31.81,6.19-43,17.26-16.13,15.92-15.68,35.61-15.68,62.82s-.45,46.9,15.68,62.83c11.2,11.07,25.54,17.26,43,17.26,18.14,0,33.15-6.42,44.57-18.14,11.2-11.51,14.79-25.44,14.79-48.23m-133.5-65V111.11H275.29v27.43H317V268.62h31.13V138.54Zm-166,20.79c0,12.17-9,20.8-22.62,20.8H171.81V138.54h29.34c13.67,0,22.62,8.63,22.62,20.79m37.64,109.29-35.62-67.91c15.46-5.54,29.12-19.25,29.12-41.38,0-26.32-19.26-48.22-51.74-48.22h-62.5V268.62h31.14V205.79h22.4l31.13,62.83ZM83.33,160.22c0,12.83-9,21.46-23.07,21.46H31.14V138.54H60.26c14.11,0,23.07,8.85,23.07,21.68m31.14,0c0-26.77-19.72-49.11-52.65-49.11H0V268.62H31.14V209.33H61.82c32.93,0,52.65-22.34,52.65-49.11"/><path class="cls-2" d="M839.75,379.52c0,25.42-.7,35.64-6.72,42.68-5.33,6.58-13.2,10-24.08,10H784.4V326.85H809c10.88,0,18.75,3.4,24.08,10,6,7,6.72,17.25,6.72,42.68m32.18,0c0-26.79-.23-43.36-10.42-57.21-11.81-16.12-27.32-23.61-49.78-23.61H752.22V460.34h59.51c22.46,0,38-7.49,49.78-23.61,10.19-13.85,10.42-30.42,10.42-57.21M713.78,460.34V432.19H637.36V392.91h65.07V364.76H637.36V326.85h76.42V298.7H605.17V460.34ZM572.06,326.85V298.7H453.73v28.15H496.8V460.34H529V326.85ZM428.73,412.66c0-14.53-3.94-26.1-12.74-34.05-7.17-6.81-16.44-10.67-31.49-12.71l-19.68-3c-6.95-.9-11.81-3.17-15.05-6.12-3.48-3.18-4.64-7.27-4.64-11.58,0-11.13,8.11-20.43,25.25-20.43,10.88,0,23.61,1.36,33.8,11.12l20.38-19.75c-14.12-13.4-30.57-18.84-53.26-18.84-35.66,0-57.43,20.2-57.43,49,0,13.62,3.94,24.29,11.81,31.79,7.41,7,17.37,11.35,32,13.39l19.68,2.95c8.34,1.14,11.58,2.5,14.82,5.45,3.47,3.4,5.1,7.95,5.1,13.39,0,12.94-10.19,20.21-29.41,20.21-15.05,0-29.18-3.41-39.6-13.62l-20.84,20.43c16.21,16.12,35.2,21.34,60.21,21.34,34.73,0,61.13-17.71,61.13-49M250.19,379.52c0,30.87-2.08,38.36-8.1,45.17a27.13,27.13,0,0,1-20.61,8.86,28,28,0,0,1-20.84-8.86c-6-6.81-7.87-14.3-7.87-45.17s1.85-38.6,7.87-45.41c4.86-5.22,12-8.62,20.84-8.62s16,3.4,20.61,8.62c6,6.81,8.1,14.53,8.1,45.41m32.19,0c0-30.88-.46-49-16.9-65.16-11.12-10.89-25-17-44-17s-33.11,6.13-44.23,17c-16.44,16.12-16.67,34.28-16.67,65.16s.23,49,16.67,65.15c11.12,10.9,25.24,17,44.23,17s32.88-6.13,44-17c16.44-16.12,16.9-34.28,16.9-65.15M120.75,460.34V298.7H88.57v66.06H32.76V298.7H.57V460.34H32.76V392.68H88.57v67.66Z"/><polygon class="cls-1" points="783.3 226.08 807.7 204.73 650.2 110.23 783.3 226.08"/><path class="cls-2" d="M645.85,46.27a169.39,169.39,0,0,0-23.43,223.4l24-15.48A118.61,118.61,0,0,1,620,182.78c-1.24-43.35,20.95-81.94,55.2-103.95-.22.14-.45.26-.67.41Z"/><path class="cls-3" d="M884.91,51a173.49,173.49,0,0,0-239.06-4.71l28.67,33c.22-.15.44-.28.67-.42Q678,77,681,75.33l1-.59c1.92-1.06,3.87-2.06,5.85-3,.42-.21.84-.43,1.28-.63A122.15,122.15,0,0,1,822.07,90.27c2.89,2.57,5.63,5.3,8.26,8.13.09.11.2.21.29.32,1.12,1.21,2.21,2.46,3.28,3.72l.91,1.08c.43.51.84,1,1.26,1.56Z"/><path class="cls-4" d="M836.07,105.07A118.68,118.68,0,0,1,848.2,235.31l56.07,34.35A169.25,169.25,0,0,0,884.91,51"/></g></g></svg>